<?xml version="1.0" encoding="utf-8"?>
<!-- Generator: Adobe Illustrator 20.0.0, SVG Export Plug-In . SVG Version: 6.00 Build 0)  -->
<svg version="1.1" id="Capa_1" xmlns="http://www.w3.org/2000/svg" xmlns:xlink="http://www.w3.org/1999/xlink" x="0px" y="0px"
	 viewBox="0 0 60 60" style="enable-background:new 0 0 60 60;" xml:space="preserve">
<style type="text/css">
	.st0{fill:#FFFFFF;}
</style>
<g>
	<path class="st0" d="M52,42.1c-0.4-0.4-1-0.4-1.4,0L47,45.6l-3.5-3.5c-0.4-0.4-1-0.4-1.4,0s-0.4,1,0,1.4l3.5,3.5L42,50.5
		c-0.4,0.4-0.4,1,0,1.4c0.2,0.2,0.5,0.3,0.7,0.3s0.5-0.1,0.7-0.3l3.5-3.5l3.5,3.5c0.2,0.2,0.5,0.3,0.7,0.3s0.5-0.1,0.7-0.3
		c0.4-0.4,0.4-1,0-1.4L48.4,47l3.5-3.5C52.3,43.1,52.3,42.4,52,42.1z"/>
	<path class="st0" d="M31,26V15.9c0-0.6-0.4-1-1-1s-1,0.4-1,1V26c-1.4,0.4-2.6,1.5-2.9,3H19c-0.6,0-1,0.4-1,1s0.4,1,1,1h7.2
		c0.5,1.7,2,2.9,3.8,2.9c2.2,0,4-1.8,4-4C34,28,32.7,26.5,31,26z M30,31.9c-1.1,0-2-0.9-2-2s0.9-2,2-2s2,0.9,2,2S31.1,31.9,30,31.9z
		"/>
	<path class="st0" d="M30,9.9c0.6,0,1-0.4,1-1v-1c0-0.6-0.4-1-1-1s-1,0.4-1,1v1C29,9.4,29.4,9.9,30,9.9z"/>
	<path class="st0" d="M30,49.9c-0.6,0-1,0.4-1,1v1c0,0.6,0.4,1,1,1s1-0.4,1-1v-1C31,50.3,30.6,49.9,30,49.9z"/>
	<path class="st0" d="M51,30.9h1c0.6,0,1-0.4,1-1s-0.4-1-1-1h-1c-0.6,0-1,0.4-1,1S50.4,30.9,51,30.9z"/>
	<path class="st0" d="M9,28.9H8c-0.6,0-1,0.4-1,1s0.4,1,1,1h1c0.6,0,1-0.4,1-1S9.6,28.9,9,28.9z"/>
	<path class="st0" d="M44.8,16c0.3,0,0.5-0.1,0.7-0.3l0.7-0.7c0.4-0.4,0.4-1,0-1.4s-1-0.4-1.4,0l-0.7,0.7c-0.4,0.4-0.4,1,0,1.4
		C44.3,15.9,44.6,16,44.8,16z"/>
	<path class="st0" d="M14.4,44l-0.7,0.7c-0.4,0.4-0.4,1,0,1.4c0.2,0.2,0.5,0.3,0.7,0.3s0.5-0.1,0.7-0.3l0.7-0.7c0.4-0.4,0.4-1,0-1.4
		S14.8,43.6,14.4,44z"/>
	<path class="st0" d="M15.2,13.6c-0.4-0.4-1-0.4-1.4,0s-0.4,1,0,1.4l0.7,0.7c0.2,0.2,0.5,0.3,0.7,0.3s0.5-0.1,0.7-0.3
		c0.4-0.4,0.4-1,0-1.4L15.2,13.6z"/>
	<path class="st0" d="M60,30C60,13.5,46.5,0,30,0S0,13.5,0,30s13.5,30,30,30c3.5,0,7-0.6,10.3-1.8c1.9,1.2,4.2,1.8,6.7,1.8
		c7.2,0,13-5.8,13-13c0-2.4-0.7-4.7-1.8-6.7C59.4,37,60,33.5,60,30z M38.4,56.7C35.7,57.6,32.9,58,30,58C14.6,58,2,45.4,2,30
		S14.6,2,30,2s28,12.6,28,28c0,2.9-0.4,5.7-1.3,8.4c-0.1-0.1-0.2-0.2-0.2-0.3c-0.2-0.2-0.3-0.3-0.5-0.5c-0.2-0.2-0.3-0.3-0.5-0.4
		c-0.2-0.1-0.3-0.3-0.5-0.4c-0.2-0.1-0.4-0.3-0.6-0.4c-0.2-0.1-0.3-0.2-0.5-0.3c-0.2-0.1-0.4-0.3-0.6-0.4c-0.2-0.1-0.4-0.2-0.5-0.3
		c-0.2-0.1-0.4-0.2-0.6-0.3c-0.2-0.1-0.4-0.2-0.6-0.2c-0.2-0.1-0.4-0.2-0.6-0.2c-0.2-0.1-0.5-0.1-0.7-0.2c-0.2,0-0.4-0.1-0.5-0.1
		c-0.3-0.1-0.6-0.1-0.9-0.1c-0.1,0-0.3,0-0.4-0.1C47.9,34,47.5,34,47,34c-7.2,0-13,5.8-13,13c0,0.5,0,0.9,0.1,1.4
		c0,0.1,0,0.3,0.1,0.4c0,0.3,0.1,0.6,0.1,0.9c0,0.2,0.1,0.4,0.1,0.5c0.1,0.2,0.1,0.5,0.2,0.7c0.1,0.2,0.1,0.4,0.2,0.6
		c0.1,0.2,0.2,0.4,0.2,0.6c0.1,0.2,0.2,0.4,0.3,0.6c0.1,0.2,0.2,0.4,0.3,0.5c0.1,0.2,0.2,0.4,0.4,0.6c0.1,0.2,0.2,0.3,0.3,0.5
		c0.1,0.2,0.3,0.4,0.4,0.6c0.1,0.2,0.3,0.3,0.4,0.5c0.1,0.2,0.3,0.3,0.4,0.5c0.2,0.2,0.3,0.3,0.5,0.5C38.2,56.5,38.3,56.6,38.4,56.7
		z M47,58c-2.2,0-4.3-0.7-6-1.8c-0.4-0.2-0.7-0.5-1-0.8c-0.1-0.1-0.1-0.1-0.2-0.2c-0.2-0.2-0.5-0.4-0.7-0.7
		c-0.1-0.1-0.2-0.2-0.3-0.3c-0.2-0.2-0.4-0.4-0.5-0.6c-0.1-0.1-0.2-0.2-0.3-0.4c-0.2-0.3-0.4-0.6-0.6-0.9c0-0.1-0.1-0.2-0.1-0.2
		c-0.2-0.3-0.3-0.6-0.5-1c-0.1-0.1-0.1-0.3-0.1-0.4c-0.1-0.3-0.2-0.5-0.3-0.8c0-0.1-0.1-0.3-0.1-0.4c-0.1-0.3-0.1-0.6-0.2-0.9
		c0-0.1,0-0.3-0.1-0.4c0-0.4-0.1-0.8-0.1-1.3c0-6.1,4.9-11,11-11c0.4,0,0.9,0,1.3,0.1c0.1,0,0.3,0,0.4,0.1c0.3,0,0.6,0.1,0.9,0.2
		c0.1,0,0.3,0.1,0.4,0.1c0.3,0.1,0.5,0.2,0.8,0.3c0.1,0,0.3,0.1,0.4,0.1c0.3,0.1,0.7,0.3,1,0.4c0.1,0,0.2,0.1,0.3,0.1
		c0.3,0.2,0.6,0.4,0.9,0.6c0.1,0.1,0.2,0.2,0.4,0.3c0.2,0.2,0.4,0.3,0.6,0.5c0.1,0.1,0.2,0.2,0.3,0.3c0.2,0.2,0.5,0.5,0.7,0.7
		c0.1,0.1,0.1,0.1,0.2,0.2c0.3,0.3,0.5,0.7,0.8,1c1.1,1.7,1.8,3.8,1.8,6C58,53.1,53.1,58,47,58z"/>
</g>
</svg>
