<?xml version="1.0" encoding="utf-8"?>
<!-- Generator: Adobe Illustrator 20.0.0, SVG Export Plug-In . SVG Version: 6.00 Build 0)  -->
<svg version="1.1" id="Capa_1" xmlns="http://www.w3.org/2000/svg" xmlns:xlink="http://www.w3.org/1999/xlink" x="0px" y="0px"
	 viewBox="0 0 204.1 204.1" style="enable-background:new 0 0 204.1 204.1;" xml:space="preserve">
<style type="text/css">
	.st0{fill:#FFFFFF;}
</style>
<path class="st0" d="M135.8,204.1H62.7c-0.7,0-1.4-0.4-1.7-1c-0.4-0.6-0.3-1.4,0-2l17.4-28.1H66.7c-0.4,0-0.9-0.1-1.2-0.4L48,159.1
	c0,0-0.1-0.1-0.1-0.1c-0.1-0.1-0.2-0.2-0.3-0.3c-0.2-0.3-0.3-0.6-0.4-1c0-0.1,0-0.1,0-0.2V52c0-1.9,0.1-3.8,0.3-5.7
	c0-0.1,0-0.3,0-0.4c0-0.3,0.1-0.6,0.2-0.9c0.6-4.5,1.8-8.8,3.5-12.9c0-0.1,0.1-0.3,0.2-0.4c3.1-7.1,7.7-13.5,13.4-18.6
	c0.1-0.2,0.3-0.3,0.5-0.4C73.4,5.6,83.7,1,95.1,0.2c0,0,0.1,0,0.1,0c2.6-0.2,5.3-0.2,7.9,0c0,0,0.1,0,0.1,0
	C114.6,1,125,5.6,133.2,12.7c0.2,0.1,0.3,0.2,0.5,0.4c2.6,2.3,4.9,4.8,7,7.5c0.1,0.1,0.3,0.3,0.4,0.5c1.8,2.4,3.4,5,4.7,7.7l5.6-1.9
	c1-0.4,2.1,0.2,2.5,1.2l3,7.9c0.2,0.5,0.2,1.1-0.1,1.5c-0.2,0.5-0.6,0.9-1.1,1l-5.7,2c0.8,3.7,1.3,7.5,1.3,11.5v105.5
	c0,0.1,0,0.1,0,0.2c0,0.4-0.2,0.7-0.4,1c-0.1,0.1-0.2,0.2-0.3,0.3c0,0-0.1,0.1-0.1,0.1l-17.5,13.4c-0.3,0.3-0.8,0.4-1.2,0.4h-11.6
	l17.4,28.1c0.4,0.6,0.4,1.4,0,2C137.2,203.7,136.6,204.1,135.8,204.1z M66.3,200.1h66l-16.9-27.2h-7.8c-2.2,2.2-5.2,3.5-8.4,3.5
	c0,0,0,0,0,0c0,0,0,0,0,0c0,0,0,0,0,0c0,0,0,0,0,0s0,0,0,0c0,0,0,0,0,0c0,0,0,0,0,0c0,0,0,0,0,0c0,0,0,0,0,0l0,0
	c-1.2,0-2.4-0.2-3.4-0.5c-1.8-0.6-3.5-1.6-4.9-3h-7.7L66.3,200.1z M93,169.4c0.1,0.1,0.2,0.2,0.3,0.3c1.5,1.8,3.6,2.8,5.9,2.8
	c0,0,0,0,0,0c0,0,0,0,0,0c0,0,0,0,0,0c1.1,0,2.1-0.2,3-0.6c2.8-1.2,4.7-3.9,4.7-7.1v-50.9H91.5v43.7c0,0.2,0,0.4-0.1,0.5v6.7
	C91.4,166.4,92,168.1,93,169.4z M116.5,168.9H131l12.3-9.4h-32.4v5.2c0,1.5-0.3,2.9-0.8,4.3H116.5z M82,168.9h6.2
	c-0.5-1.3-0.8-2.8-0.8-4.3v-5.2H55.1l12.3,9.4L82,168.9L82,168.9z M111,155.5h36.2V58.1h-37.2c4.1,3.2,6.7,8.2,6.7,13.7v32.7l0,0v0
	l0,0c0,0,0,0,0,0c0,0,0,0,0,0c0,0.5-0.2,0.9-0.4,1.2l-5.2,6.8L111,155.5L111,155.5z M51.2,155.5h36.2v-42.9l-5.2-6.7
	c-0.3-0.3-0.4-0.7-0.4-1.2l0,0c0,0,0,0,0,0c0,0,0,0,0,0V71.8c0-5.6,2.6-10.6,6.7-13.7H51.2V155.5z M90.3,109.8h17.9l2.4-3.2H87.9
	L90.3,109.8z M85.8,102.6h26.8V71.8c0-7.4-6-13.4-13.4-13.4c-7.4,0-13.4,6-13.4,13.4V102.6z M51.2,54.1h96V52c0-1.4-0.1-2.8-0.2-4.1
	h-29.8c-1.1,0-2-0.9-2-2V22c0-1.1,0.9-2,2-2h17.8c-1.2-1.3-2.4-2.5-3.7-3.7h-10.1c-0.4,0-0.8-0.1-1.1-0.3l-12.9-8.7l2.4,6.3
	c0.2,0.6,0.2,1.3-0.2,1.8c-0.4,0.5-1,0.9-1.6,0.9H89.8c-0.7,0-1.3-0.3-1.7-0.9c-0.4-0.6-0.4-1.3-0.1-1.9l2.3-5.2L80.1,16
	c-0.3,0.3-0.8,0.4-1.2,0.4H67.1c-4.4,4-8.1,8.8-10.8,14.3h17.2c1.1,0,2,0.9,2,2v13.2c0,1.1-0.9,2-2,2H51.4c-0.1,1.4-0.2,2.7-0.2,4.1
	V54.1z M119.2,43.9h27.3c-1.3-7.3-4.2-14-8.3-19.8h-19L119.2,43.9L119.2,43.9z M51.9,43.9h19.6v-9.2h-17
	C53.3,37.6,52.4,40.7,51.9,43.9z M147.3,32.4c0.6,1.4,1.1,2.8,1.5,4.2l3.5-1.2l-1.6-4.2L147.3,32.4z M121.8,12.4h4.4
	c-4.3-3-9.1-5.2-14.3-6.6L121.8,12.4z M92.9,12.4h11.8l-3.2-8.3C100,4,98.3,4,96.7,4.1L92.9,12.4z M72.1,12.4h6.1l9.3-6.9
	C82,6.8,76.8,9.2,72.1,12.4z M99.2,87.9c-5.8,0-10.6-4.7-10.6-10.6s4.7-10.6,10.6-10.6s10.6,4.7,10.6,10.6
	C109.8,83.2,105.1,87.9,99.2,87.9z M99.2,70.8c-3.6,0-6.6,3-6.6,6.6s3,6.6,6.6,6.6c3.6,0,6.6-3,6.6-6.6S102.9,70.8,99.2,70.8z
	 M104.9,47.9H84.2c-1.1,0-2-0.9-2-2V32.6c0-1.1,0.9-2,2-2h20.8c1.1,0,2,0.9,2,2v13.2C106.9,47,106,47.9,104.9,47.9z M86.2,43.9h16.8
	v-9.2H86.2V43.9z M132.5,42.2c-4.5,0-8.2-3.7-8.2-8.2s3.7-8.2,8.2-8.2c4.5,0,8.2,3.7,8.2,8.2S137.1,42.2,132.5,42.2z M132.5,29.7
	c-2.3,0-4.2,1.9-4.2,4.3s1.9,4.2,4.2,4.2s4.2-1.9,4.2-4.2S134.9,29.7,132.5,29.7z"/>
</svg>
