<?xml version="1.0" encoding="utf-8"?>
<!-- Generator: Adobe Illustrator 20.0.0, SVG Export Plug-In . SVG Version: 6.00 Build 0)  -->
<svg version="1.1" id="Capa_1" xmlns="http://www.w3.org/2000/svg" xmlns:xlink="http://www.w3.org/1999/xlink" x="0px" y="0px"
	 viewBox="0 0 612 612" style="enable-background:new 0 0 612 612;" xml:space="preserve">
<style type="text/css">
	.st0{fill:#FFFFFF;}
</style>
<g>
	<path class="st0" d="M45.8,171.8h42.9c5,0,9-4,9-9s-4-9-9-9H61.5c3.6-5.7,7.3-11.3,11.3-16.8h140.9c5,0,9-4,9-9c0-5-4-9-9-9H68.2
		c-2.8,0-5.5,1.3-7.2,3.6c-8.6,11.4-16.4,23.5-23.1,35.9c-1.5,2.8-1.5,6.2,0.1,8.9C39.7,170.1,42.6,171.8,45.8,171.8z"/>
	<path class="st0" d="M17.6,244h130c5,0,9-4,9-9c0-5-4-9-9-9H29.2c1.6-5.6,3.4-11.2,5.4-16.8h54c5,0,9-4,9-9c0-5-4-9-9-9H28.4
		c-3.7,0-7.1,2.3-8.4,5.8c-4.5,11.7-8.3,23.8-11.2,35.9c-0.7,2.7,0,5.5,1.7,7.7C12.2,242.7,14.8,244,17.6,244z"/>
	<path class="st0" d="M170.9,411.6c0-5-4-9-9-9H34.6c-2-5.5-3.8-11.1-5.4-16.8h245.1c5,0,9-4,9-9c0-5-4-9-9-9H17.5
		c-2.8,0-5.4,1.3-7.1,3.4c-1.7,2.2-2.3,5-1.7,7.7c3,12.2,6.7,24.3,11.1,35.9c1.3,3.5,4.7,5.8,8.4,5.8h133.6
		C166.9,420.6,170.9,416.6,170.9,411.6z"/>
	<path class="st0" d="M278,483.9c0-5-4-9-9-9H72.7c-4-5.5-7.7-11.1-11.3-16.8h27.3c5,0,9-4,9-9s-4-9-9-9h-43c-3.2,0-6.1,1.7-7.7,4.4
		c-1.6,2.7-1.7,6.1-0.1,8.9c6.7,12.3,14.5,24.4,23.1,35.8c1.7,2.3,4.4,3.6,7.2,3.6H269C273.9,492.9,278,488.8,278,483.9z"/>
	<path class="st0" d="M306,0C227.3,0,152.5,29.8,95.4,84c-2.7,2.5-3.5,6.4-2.2,9.9c1.4,3.4,4.7,5.7,8.4,5.7h80.7c5,0,9-4,9-9
		s-4-9-9-9h-56.8C176.6,40.4,239.8,18,306,18c155.8,0,283.1,124.4,287.9,279H18.1c0.2-5.2,0.4-10.4,0.9-15.5h262.4c5,0,9-4,9-9
		s-4-9-9-9H10.9c-4.6,0-8.4,3.4-8.9,8c-1.3,11.4-2,23-2,34.5c0,11.4,0.6,23,1.9,34.4c0.5,4.5,4.4,8,8.9,8h195.5c5,0,9-4,9-9
		s-4-9-9-9H19c-0.4-5.1-0.7-10.3-0.9-15.4h575.7c-0.2,5.2-0.5,10.3-0.9,15.4H482.1c-5,0-9,4-9,9s4,9,9,9h108.8
		c-1,6.6-2.2,13.1-3.6,19.5H537c-5,0-9,4-9,9c0,5,4,9,9,9h45.8c-5.5,19-12.9,37.1-21.9,54.3H416.6c-5,0-9,4-9,9s4,9,9,9h133.9
		C499.6,539.6,409,594,306,594c-66.3,0-129.6-22.5-180.7-63.7h49.2c5,0,9-4,9-9c0-5-4-9-9-9h-73.1c-3.7,0-7,2.2-8.4,5.7
		c-1.4,3.4-0.5,7.3,2.2,9.9C152.3,582.1,227.2,612,306,612c168.7,0,306-137.3,306-306S474.7,0,306,0z"/>
	<path class="st0" d="M473.9,280c6.5,0,12.8-1.1,18.9-3.1c37.3-12.8,54.4-61.6,38.1-108.8c-13.3-38.6-45.4-65.5-78.1-65.5
		c-6.5,0-12.8,1.1-18.9,3.1c-37.3,12.8-54.4,61.6-38.1,108.8C409.1,253.1,441.2,280,473.9,280z M439.8,122.7c4.2-1.4,8.6-2.2,13-2.2
		c25.2,0,50.3,21.9,61.1,53.4c13,37.8,0.9,76.4-27,86c-4.2,1.4-8.6,2.2-13,2.2c-25.2,0-50.3-21.9-61.1-53.4
		C399.9,170.9,412,132.3,439.8,122.7z M478.1,186.2c3.7,10.6,0,21.5-8.1,24.3c-8.1,2.8-17.7-3.5-21.4-14.2
		c-3.7-10.6,0-21.5,8.1-24.3C464.9,169.3,474.5,175.6,478.1,186.2z"/>
</g>
</svg>
