<?xml version="1.0" encoding="utf-8"?>
<!-- Generator: Adobe Illustrator 20.0.0, SVG Export Plug-In . SVG Version: 6.00 Build 0)  -->
<svg version="1.1" id="Layer_1" xmlns="http://www.w3.org/2000/svg" xmlns:xlink="http://www.w3.org/1999/xlink" x="0px" y="0px"
	 viewBox="0 0 372 184.7" style="enable-background:new 0 0 372 184.7;" xml:space="preserve">
<style type="text/css">
	.st0{fill:#BB8545;}
	.st1{fill:#0065A5;}
	.st2{fill-rule:evenodd;clip-rule:evenodd;fill:#FFFFFF;}
	.st3{fill:#FFFFFF;}
</style>
<g>
	<path class="st2" d="M9.9,63.9v22.7h62.7c18.3,0,25.8-22,17.1-32.4L75,36.7c-2-2.4,0.1-3.3,2.1-3.3h42.3v53.2h22.9V33.3h30.3V10.8
		H68.7C50,10.8,42.2,32.2,52,43.9l13.4,15.9c2.3,2.8,2.1,4.1-1.4,4.1H9.9L9.9,63.9z"/>
	<path class="st3" d="M11.9,65.8v18.8h60.7c4.8,0,8.7-1.6,11.7-4.1c2.3-1.9,4.1-4.4,5.3-7.1c1.2-2.7,1.8-5.6,1.8-8.4
		c0-3.6-1-7-3.2-9.6L73.5,37.9c-0.6-0.7-1-1.4-1.1-2c-0.3-1-0.1-1.8,0.4-2.6l0,0c0.4-0.6,1-1.1,1.7-1.4c0.8-0.3,1.8-0.5,2.7-0.5
		h42.3h1.9v1.9v51.3h19V33.3v-1.9h1.9h28.4V12.7h-102c-5,0-9.1,1.7-12.2,4.3c-2.2,1.8-3.9,4.2-5.1,6.7c-1.2,2.6-1.8,5.4-1.8,8.1h0
		c0,3.9,1.2,7.7,3.8,10.8l13.4,15.9c1.6,1.9,2.3,3.5,1.9,4.9c-0.5,1.6-2,2.4-4.7,2.4v0H11.9L11.9,65.8z M8,86.6V63.9V62h1.9h54v0
		c0.8,0,0.9,0.6,1,0.4c0,0-0.4-0.4-1.1-1.3L50.5,45.1c-3.2-3.8-4.7-8.5-4.7-13.3h0c0-3.3,0.7-6.7,2.1-9.7c1.4-3.1,3.4-5.9,6.1-8.1
		c3.8-3.2,8.7-5.2,14.7-5.2h103.9h1.9v1.9v22.6v1.9h-1.9h-28.4v51.3v1.9h-1.9h-22.9h-1.9v-1.9V35.2H77.1c-0.3,0-0.5,0-0.8,0.1
		c0,0,0.1,0.1,0.1,0.1L91.2,53c2.8,3.3,4.1,7.6,4.1,12.1c0,3.3-0.7,6.8-2.2,10c-1.4,3.2-3.6,6.1-6.3,8.4c-3.7,3.1-8.4,5-14.2,5H9.9
		H8V86.6L8,86.6z"/>
	<polygon class="st2" points="111.6,98.1 93.4,173.9 70.1,173.9 61,132.9 51.9,173.9 28.6,173.9 10.4,98.1 33,98.1 42,138.7 
		50.9,98.1 70.8,98.1 79.8,138.7 88.8,98.1 111.6,98.1 	"/>
	<path class="st3" d="M113.4,98.6l-18.2,75.8l-0.4,1.5h-1.5H70.1h-1.5l-0.3-1.5L61,141.8l-7.2,32.6l-0.3,1.5h-1.5H28.6h-1.5
		l-0.4-1.5L8.6,98.6L8,96.2h2.4H33h1.5l0.3,1.5l7.1,32.2l7.1-32.2l0.3-1.5h1.5h19.9h1.5l0.3,1.5l7.1,32.2L87,97.7l0.3-1.5h1.5h22.7
		h2.4L113.4,98.6L113.4,98.6z M91.9,172l17.3-72H90.4l-8.7,39.1l-1.9,8.4l-1.9-8.4L69.3,100H52.5l-8.7,39.1l-1.9,8.4l-1.9-8.4
		L31.4,100H12.9l17.3,72h20.3l8.8-39.5l1.9-8.4l1.9,8.4l8.8,39.5H91.9L91.9,172z"/>
	<path class="st2" d="M173.2,86.6l18.2-75.8l42.5,0l18.2,75.8H229l-2.7-11.1h-27.7L196,86.6H173.2L173.2,86.6z M212.5,25.8
		l-10.1,34.1h20.2L212.5,25.8L212.5,25.8z"/>
	<path class="st3" d="M171.3,86.1l18.2-75.8l0.4-1.5l1.5,0l42.5,0l1.5,0l0.4,1.5l18.2,75.8l0.6,2.4h-2.4H229h-1.5l-0.4-1.5l-2.3-9.6
		h-24.7l-2.3,9.6l-0.4,1.5H196h-22.8h-2.4L171.3,86.1L171.3,86.1z M192.9,12.7l-17.3,71.9h18.9l2.3-9.6l0.4-1.5h1.5h27.7h1.5
		l0.4,1.5l2.3,9.6h19.1l-17.3-72L192.9,12.7L192.9,12.7z M212.5,32.5L205,58H220L212.5,32.5L212.5,32.5z M200.5,59.4l10.1-34.1
		l1.8-6.2l1.8,6.2l10.1,34.1l0.7,2.5h-2.6h-20.2h-2.6L200.5,59.4L200.5,59.4z"/>
	<path class="st2" d="M259.9,10.8l0,75.8h22.8V63.9c0-4.6,1.5-5.1,4.7-1.9l19.5,19.5c5.1,5.1,5.4,5,11.4,5h43.7V63.9h-42.9
		c-1.3,0-1.5-0.2-2.2-0.9l-4.6-4.7c2.4-1,6.4-3.1,8.6-4.6c17.7-12.5,11.1-42.8-15-42.8L259.9,10.8L259.9,10.8z M282.7,29.8v19h18.1
		c12.7,0,14.1-19,0-19H282.7L282.7,29.8z"/>
	<path class="st3" d="M261.8,12.7l0,72h19V63.9c0-3.2,0.8-5,2.4-5.7c1.6-0.6,3.4,0.2,5.7,2.4l19.5,19.5c4.5,4.5,4.7,4.5,9.9,4.5v0
		h0.2h41.8V65.8h-40.9c-2.1,0-2.4-0.3-3.5-1.4l0,0l-4.6-4.7l-2-2l2.6-1.1l0,0c0.4-0.2,0.7-0.3,1-0.5c0.3-0.1,0.7-0.3,1.2-0.6
		c2.1-1,4.5-2.3,6.1-3.4c4.4-3.1,7.2-7.5,8.4-12.1c1-4,0.9-8.2-0.3-12.1c-1.2-3.9-3.4-7.4-6.7-10.1c-3.8-3.1-8.9-5-15.3-5.1
		L261.8,12.7L261.8,12.7z M257.9,86.6l0-75.8V8.8l1.9,0L306,8.9c7.4,0,13.4,2.3,17.8,5.9c3.9,3.2,6.6,7.4,8,12
		c1.4,4.6,1.5,9.5,0.3,14.1c-1.4,5.5-4.7,10.6-9.9,14.3c-1.7,1.2-4.2,2.6-6.4,3.7l2.7,2.7l0,0c0.2,0.3,0.3,0.3,0.8,0.3h42.9h1.9v1.9
		v22.7v1.9h-1.9h-43.7h-0.2v0c-6.6,0-7,0-12.6-5.6L286,63.4c-1-1-1.5-1.6-1.5-1.6c-0.1,0,0.1,0.7,0.1,2.1v22.7v1.9h-1.9h-22.8h-1.9
		L257.9,86.6L257.9,86.6z M284.6,31.7v15.1h16.1c3.8,0,6.4-2.1,7.5-4.7c0.4-1,0.7-2.1,0.7-3.2c0-1.1-0.2-2.1-0.6-3.1
		c-1-2.4-3.5-4.2-7.6-4.2H284.6L284.6,31.7z M280.7,48.8v-19v-1.9h1.9h18.1c5.8,0,9.5,2.8,11.1,6.5c0.6,1.5,0.9,3,0.9,4.6
		c0,1.6-0.3,3.2-1,4.6c-1.7,3.9-5.4,7-11,7h-18.1h-1.9V48.8L280.7,48.8z"/>
	<path class="st2" d="M310.3,151.2c3.1,0,3.6-1.5,1.4-4.1l-13.4-15.9c-9.8-11.7-1.9-33.1,16.8-33.1h47v22.6h-38.6
		c-3.6,0-4,1.1-2.1,3.3l14.7,17.5c8.7,10.4,1.2,32.4-17.1,32.4h-61c-6.1,0-6.4,0.1-11.4-5L227,149.4c-3.3-3.3-4.7-2.7-4.7,1.9v22.7
		h-22.8l0-75.8l46.1,0.1c26.1,0,32.7,30.3,15,42.8c-2.3,1.6-6.3,3.6-8.6,4.6l4.6,4.7c0.7,0.8,0.9,0.9,2.2,0.9H310.3L310.3,151.2z
		 M222.2,117.1v19h18.1c12.7,0,14.1-19,0-19H222.2L222.2,117.1z"/>
	<path class="st3" d="M310.3,149.3c0.2,0,0.4,0,0.6,0c-0.2-0.3-0.4-0.6-0.7-0.9l-13.4-15.9c-3.2-3.8-4.7-8.5-4.7-13.3h0
		c0-3.3,0.7-6.7,2.1-9.7c1.4-3.1,3.5-5.9,6.1-8.1c3.8-3.2,8.7-5.2,14.7-5.2h47h1.9v1.9v22.6v1.9h-1.9h-38.6c-1.1,0-1.4-0.2-1.5-0.1
		c-0.1,0.3,0.4-0.1,0.8,0.3l14.7,17.5c2.8,3.3,4.1,7.6,4.1,12.1c0,3.3-0.7,6.8-2.2,10c-1.4,3.2-3.6,6.1-6.3,8.4
		c-3.7,3.1-8.4,5-14.2,5v0h-61v0h-0.2v0c-6.6,0-7,0-12.6-5.6l-19.5-19.5c-1-1-1.5-1.6-1.5-1.6c-0.1,0,0.1,0.7,0.1,2.1v22.7v1.9h-1.9
		h-22.8h-1.9l0-1.9l0-75.8l0-1.9l1.9,0l46.1,0.1c7.4,0,13.4,2.3,17.8,5.9c3.9,3.2,6.6,7.4,8,12c1.4,4.6,1.5,9.5,0.3,14.1
		c-1.4,5.5-4.7,10.6-9.9,14.3h0l0,0c-0.3,0.2-0.7,0.5-1.1,0.7c-0.4,0.3-0.8,0.5-1.3,0.8c-1.3,0.8-2.7,1.5-4.1,2.2l2.7,2.7l0,0
		c0.2,0.3,0.3,0.3,0.8,0.3H310.3L310.3,149.3z M312.9,152.7c-0.7,0.3-1.6,0.4-2.6,0.4h-51.5c-2.1,0-2.4-0.3-3.5-1.4l0,0l-4.6-4.7
		l-2-2l2.6-1.1c1.7-0.7,4.1-1.9,6.2-3.1c0.4-0.2,0.8-0.5,1.1-0.7c0.3-0.2,0.6-0.4,1-0.6l0,0l0,0c4.4-3.1,7.2-7.5,8.4-12.1
		c1-4,0.9-8.2-0.3-12.1c-1.2-3.9-3.4-7.4-6.7-10.1c-3.8-3.1-8.9-5-15.3-5.1l-44.2-0.1l0,72h19v-20.7c0-3.2,0.8-5,2.4-5.7
		c1.6-0.6,3.4,0.2,5.7,2.4l19.5,19.5c4.5,4.5,4.7,4.5,9.9,4.5v0h0.2v0h61v0c4.8,0,8.7-1.6,11.7-4.1c2.3-1.9,4.1-4.4,5.3-7.1
		c1.2-2.7,1.8-5.6,1.8-8.4c0-3.6-1-7-3.2-9.6l-14.7-17.5c-1.5-1.8-2-3.3-1.2-4.7c0.7-1.2,2.2-1.8,4.8-1.8h36.7V100H315
		c-5,0-9.1,1.7-12.2,4.3c-2.2,1.8-3.9,4.2-5.1,6.7c-1.2,2.6-1.8,5.4-1.8,8.1h0c0,3.9,1.2,7.7,3.8,10.8l13.4,15.9
		c0.8,1,1.3,1.9,1.6,2.7c0.3,0.9,0.3,1.7,0,2.4C314.4,151.8,313.8,152.4,312.9,152.7L312.9,152.7z M224.2,119.1v15.1h16.1
		c3.8,0,6.4-2.1,7.5-4.7c0.4-1,0.7-2.1,0.7-3.2c0-1.1-0.2-2.1-0.6-3.1c-1-2.4-3.5-4.2-7.6-4.2H224.2L224.2,119.1z M220.3,136.1v-19
		v-1.9h1.9h18.1c5.8,0,9.5,2.8,11.1,6.5c0.6,1.5,0.9,3,0.9,4.6c0,1.6-0.3,3.2-1,4.6c-1.7,3.9-5.4,7-11,7h-18.1h-1.9V136.1
		L220.3,136.1z"/>
	<path class="st2" d="M112.4,173.9l18.2-75.8l42.5,0l18.2,75.8h-23.1l-2.7-11.1h-27.7l-2.7,11.1H112.4L112.4,173.9z M151.8,113.2
		l-10.1,34.1h20.2L151.8,113.2L151.8,113.2z"/>
	<path class="st3" d="M110.6,173.5l18.2-75.8l0.4-1.5h1.5l42.5,0l1.5,0l0.4,1.5l18.2,75.8l0.6,2.4h-2.4h-23.1h-1.5l-0.4-1.5
		l-2.3-9.6h-24.7l-2.3,9.6l-0.4,1.5h-1.5h-22.8H110L110.6,173.5L110.6,173.5z M132.2,100.1L114.9,172h18.9l2.3-9.6l0.4-1.5h1.5h27.7
		h1.5l0.4,1.5l2.3,9.6h19.1l-17.3-72L132.2,100.1L132.2,100.1z M151.8,119.9l-7.5,25.4h15.1L151.8,119.9L151.8,119.9z M139.8,146.7
		l10.1-34.1l1.8-6.2l1.8,6.2l10.1,34.1l0.7,2.5h-2.6h-20.2h-2.6L139.8,146.7L139.8,146.7z"/>
</g>
</svg>
